<?xml version="1.0" standalone="no"?>
<!DOCTYPE svg PUBLIC "-//W3C//DTD SVG 20010904//EN"
 "http://www.w3.org/TR/2001/REC-SVG-20010904/DTD/svg10.dtd">
<svg version="1.0" xmlns="http://www.w3.org/2000/svg"
 width="700.000000pt" height="700.000000pt" viewBox="0 0 700.000000 700.000000"
 preserveAspectRatio="xMidYMid meet">
<metadata>
Created by potrace 1.14, written by Peter Selinger 2001-2017
</metadata>
<g transform="translate(0.000000,700.000000) scale(0.100000,-0.100000)"
fill="#000000" stroke="none">
<path d="M4301 6676 c2 -2 50 -38 106 -80 290 -217 522 -532 636 -861 72 -210
105 -408 114 -685 7 -222 -5 -371 -43 -560 -136 -676 -611 -1189 -1335 -1444
l-115 -41 821 -1345 821 -1345 295 1 c265 1 303 3 383 23 177 43 329 132 457
269 115 123 191 268 226 432 17 81 18 205 18 2460 0 2255 -1 2379 -18 2460
-35 164 -111 309 -226 432 -127 136 -280 227 -452 268 -81 19 -117 20 -888 20
-442 0 -802 -2 -800 -4z"/>
<path d="M1340 4891 l0 -841 433 0 c588 0 798 18 1032 85 321 93 540 302 601
575 23 104 23 330 0 425 -52 215 -221 397 -449 485 -234 91 -338 101 -1039
107 l-578 5 0 -841z"/>
<path d="M1350 1545 l0 -1235 965 0 c531 0 965 2 965 4 0 2 -301 556 -669
1232 l-669 1229 -296 3 -296 2 0 -1235z"/>
</g>
</svg>
